{
  "accessors": [
    {
      "bufferView": 0,
      "componentType": 5125,
      "count": 43848,
      "type": "SCALAR"
    },
    {
      "bufferView": 1,
      "componentType": 5126,
      "count": 8350,
      "max": [
        -0.036866620703705666,
        0.06637878055295765,
        0.00467800463828369
      ],
      "min": [
        -0.0611848180681292,
        0.041923252360237306,
        -0.004678004638283691
      ],
      "type": "VEC3"
    },
    {
      "bufferView": 2,
      "componentType": 5126,
      "count": 8350,
      "max": [
        0.9999996345424598,
        0.9999991659669778,
        0.9999999438274232
      ],
      "min": [
        -0.9999915862260405,
        -0.9999972417184153,
        -0.9999999438274232
      ],
      "type": "VEC3"
    },
    {
      "bufferView": 3,
      "componentType": 5126,
      "count": 8350,
      "max": [
        1.0,
        0.5260707052122797
      ],
      "min": [
        0.0,
        0.0
      ],
      "type": "VEC2"
    },
    {
      "bufferView": 4,
      "componentType": 5125,
      "count": 63276,
      "type": "SCALAR"
    },
    {
      "bufferView": 5,
      "componentType": 5126,
      "count": 13732,
      "max": [
        0.23038609838672364,
        0.1842762078136731,
        0.033312088111379076
      ],
      "min": [
        -0.2303860983867237,
        -0.1842762078136731,
        -0.03331208811137908
      ],
      "type": "VEC3"
    },
    {
      "bufferView": 6,
      "componentType": 5126,
      "count": 13732,
      "max": [
        0.9999999813230599,
        0.9999997152414614,
        0.9999999151785758
      ],
      "min": [
        -0.9999999984950971,
        -0.9999999938970998,
        -0.9999999151785758
      ],
      "type": "VEC3"
    },
    {
      "bufferView": 7,
      "componentType": 5126,
      "count": 13732,
      "max": [
        0.8795102558514186,
        1.0
      ],
      "min": [
        0.0,
        0.0
      ],
      "type": "VEC2"
    }
  ],
  "asset": {
    "generator": "Adobe Illustrator",
    "version": "2.0"
  },
  "bufferViews": [
    {
      "buffer": 0,
      "byteLength": 175392,
      "target": 34963
    },
    {
      "buffer": 0,
      "byteLength": 100200,
      "byteOffset": 175392,
      "target": 34962
    },
    {
      "buffer": 0,
      "byteLength": 100200,
      "byteOffset": 275592,
      "target": 34962
    },
    {
      "buffer": 0,
      "byteLength": 66800,
      "byteOffset": 375792,
      "target": 34962
    },
    {
      "buffer": 0,
      "byteLength": 253104,
      "byteOffset": 442592,
      "target": 34963
    },
    {
      "buffer": 0,
      "byteLength": 164784,
      "byteOffset": 695696,
      "target": 34962
    },
    {
      "buffer": 0,
      "byteLength": 164784,
      "byteOffset": 860480,
      "target": 34962
    },
    {
      "buffer": 0,
      "byteLength": 109856,
      "byteOffset": 1025264,
      "target": 34962
    }
  ],
  "buffers": [
    {
      "byteLength": 1135120,
      "uri": "data:application/octet-stream;base64,"
    }
  ],
  "materials": [
    {
      "doubleSided": true,
      "pbrMetallicRoughness": {
        "baseColorFactor": [
          0.5703125,
          0.5703125,
          0.5703125,
          1.0
        ],
        "metallicFactor": 0.0,
        "roughnessFactor": 0.4000000059604645
      }
    },
    {
      "doubleSided": true,
      "pbrMetallicRoughness": {
        "baseColorFactor": [
          0.5703125,
          0.5703125,
          0.5703125,
          1.0
        ],
        "metallicFactor": 0.0,
        "roughnessFactor": 0.4000000059604645
      }
    }
  ],
  "meshes": [
    {
      "primitives": [
        {
          "attributes": {
            "NORMAL": 2,
            "POSITION": 1,
            "TEXCOORD_0": 3
          },
          "indices": 0,
          "material": 0,
          "mode": 4
        }
      ]
    },
    {
      "primitives": [
        {
          "attributes": {
            "NORMAL": 6,
            "POSITION": 5,
            "TEXCOORD_0": 7
          },
          "indices": 4,
          "material": 1,
          "mode": 4
        }
      ]
    }
  ],
  "nodes": [
    {
      "mesh": 0
    },
    {
      "mesh": 1
    }
  ],
  "scenes": [
    {
      "nodes": [
        0,
        1
      ]
    }
  ]
}
